<svg width="400" height="400" viewBox="0 0 400 400" fill="none" xmlns="http://www.w3.org/2000/svg">
<g clip-path="url(#clip0_33252_58726)">
<path d="M0 0H400V400H0V0Z" fill="#E8EBEB"/>
<g opacity="0.6">
<path opacity="0.6" fill-rule="evenodd" clip-rule="evenodd" d="M148.586 141.652L109.058 139.206L111.714 133.681L106.501 126.697L97.568 127.653L93.403 132.543L96.153 138.547L64.986 137.186L63.199 188.398L87.508 201.246L87.74 154.294L151.316 146.719L150.893 144.534L148.586 141.652ZM92.3335 174.724L152.626 165.613L151.316 151.053L92.556 159.497L92.3335 174.724ZM93.7275 201.876L152.626 184.508V171.811L92.3335 181.044L93.7275 201.876ZM201.024 62.868L190.875 62.1735L150.173 59.2195L150.197 59.391L147.68 59.2195V66.2635L151.218 66.5765L158.572 118.324L190.879 116.709L197.406 70.667L201.024 70.9865V62.868ZM173.15 54.318L182.396 55.57L185.552 34.9L176.023 21.706L169.52 26.5535L175.379 37.6185L173.15 54.318ZM125.098 -36.949L117.923 -32.537L118.186 -41.4975L109.298 -44L105.105 -37.721L108.003 -30.488L101.625 -20.593L106.261 -14.809L113.503 -14.519L119.592 -24.4155L128.137 -23.3765L131.147 -31.892L125.098 -36.949H125.098ZM102.846 -8.979L113.654 -7.883L112.499 13.3455L105.297 31.3985L78.1615 42.9645L61.068 35.4415L51.797 12.877L66.573 -5.069L84.376 -5.33L96.6335 -16.277L102.846 -8.979ZM125.098 363.051L117.923 367.463L118.186 358.503L109.298 356L105.105 362.279L108.003 369.512L101.625 379.407L106.261 385.191L113.503 385.481L119.592 375.585L128.137 376.624L131.147 368.108L125.098 363.051H125.098ZM102.846 391.021L113.654 392.117L112.499 413.345L105.297 431.398L78.1615 442.965L61.068 435.441L51.797 412.877L66.573 394.931L84.376 394.67L96.6335 383.723L102.846 391.021ZM359.712 126.669L349.257 123.165L357.633 90.196L387.134 67.2585H418.587L419.927 75.9355L387.134 81.0875L368.444 99.8705L359.712 126.669H359.712ZM410.944 133.098C409.553 135.505 405.91 135.823 402.327 134.072C399.91 132.889 399.923 129.882 400.186 128.049C400.327 127.049 400.732 126.105 401.358 125.313C402.221 124.22 403.663 122.798 405.326 122.754C408.03 122.683 410.359 123.895 411.674 126.087C412.993 128.276 412.333 130.686 410.944 133.097V133.098ZM402.508 92.699C403.198 90.0525 406.44 89.658 408.064 89.629C408.678 89.619 409.283 89.7425 409.845 89.9955C410.992 90.514 412.936 91.624 413.329 93.3135C413.894 95.7455 413.349 97.7875 411.604 99.382C409.859 100.977 407.553 100.828 405.112 100.017C402.668 99.208 401.584 96.261 402.508 92.699ZM385.874 116.495C384.137 117.958 382.257 118.361 380.244 117.613C378.231 116.863 377.397 114.94 377.046 112.634C376.691 110.327 378.631 108.233 381.9 107.506C384.328 106.968 385.988 109.424 386.682 110.721C386.946 111.215 387.096 111.755 387.122 112.312C387.176 113.452 387.081 115.479 385.874 116.495ZM389.948 85.6825L372.647 103.305L364.715 127.927L431.126 150.178L420.382 80.643L389.948 85.683L389.948 85.6825ZM-39.545 126.669L-50 123.165L-41.624 90.196L-12.1235 67.2585H19.33L20.67 75.9355L-12.1235 81.0875L-30.8135 99.8705L-39.545 126.669ZM11.6865 133.098C10.2955 135.505 6.653 135.823 3.0695 134.072C0.652496 132.889 0.664997 129.882 0.928997 128.049C1.06991 127.049 1.47423 126.105 2.1005 125.313C2.964 124.22 4.4055 122.798 6.068 122.754C8.77299 122.683 11.1015 123.895 12.417 126.087C13.7355 128.276 13.076 130.686 11.6865 133.097V133.098ZM3.2505 92.699C3.93999 90.0525 7.1825 89.658 8.806 89.629C9.421 89.619 10.026 89.7425 10.588 89.9955C11.7345 90.514 13.678 91.624 14.0715 93.3135C14.6365 95.7455 14.091 97.7875 12.347 99.382C10.602 100.977 8.296 100.828 5.8545 100.017C3.4115 99.208 2.3265 96.261 3.2505 92.699ZM-13.383 116.495C-15.12 117.958 -16.9995 118.361 -19.013 117.612C-21.0255 116.862 -21.86 114.939 -22.211 112.633C-22.566 110.326 -20.626 108.232 -17.357 107.505C-14.9285 106.967 -13.2685 109.423 -12.5745 110.72C-12.311 111.214 -12.1605 111.754 -12.1345 112.311C-12.0805 113.451 -12.1755 115.479 -13.383 116.495ZM-9.30901 85.682L-26.609 103.304L-34.542 127.926L31.87 150.177L21.125 80.642L-9.30901 85.682ZM339.241 -11.577L323.108 -16.4095L322.475 -0.6175L319.718 0.183998L315.624 -18.651L305.932 -21.5535L302.003 -6.678L299.379 -6.0675L298.679 -23.726L287.776 -26.9925L281.212 -12.2135L279.299 -11.8645L279.822 -28.1745L263.378 -29L253.066 -22.313L252.318 -11.691L256.558 -5.6085L327.627 16.4945L344.569 10.9235L347.745 -0.294498L339.242 -11.577H339.241ZM344.518 14.984L322.592 23.8875L312.311 15.7375L300.405 17.335L290.821 7.453L277.319 8.055L267.234 0.0519981L251.427 -1.426L250.797 4.8865L265.192 7.255L273.962 14.553L288.674 15.648L298.887 24.0035L309.999 23.6785L321.215 31.084L346.787 20.66L344.518 14.984ZM252.504 8.844L252.895 15.739L255.301 20.211L316.597 43.115L327.912 44.627L338.653 41.411L343.809 34.642L344.573 27.1235L327.445 34.0475L319.797 34.855L252.504 8.8445V8.844ZM339.241 388.423L323.108 383.591L322.475 399.383L319.718 400.184L315.624 381.349L305.932 378.447L302.003 393.322L299.379 393.932L298.679 376.274L287.776 373.008L281.212 387.786L279.299 388.135L279.822 371.826L263.378 371L253.066 377.687L252.318 388.309L256.558 394.392L327.626 416.495L344.569 410.923L347.744 399.706L339.241 388.423ZM344.518 414.984L322.592 423.888L312.311 415.737L300.405 417.335L290.821 407.453L277.319 408.055L267.234 400.052L251.427 398.574L250.797 404.887L265.192 407.255L273.962 414.553L288.674 415.648L298.887 424.004L309.999 423.678L321.215 431.084L346.787 420.66L344.518 414.984ZM252.504 408.844L252.895 415.739L255.301 420.211L316.597 443.115L327.912 444.627L338.653 441.411L343.809 434.642L344.573 427.124L327.445 434.047L319.797 434.855L252.504 408.845V408.844ZM197.147 240.289L227.495 233.712L233.796 228.932L229.974 218.355L220.594 218.008L227.542 212.113L226.326 203.096L215.906 202.719L214.997 196.853L198.855 193.385V186.622L191.257 190.783L188.673 197.477L192.451 204.861H187.761L179.118 208.702V216.505L187.228 221.303L176.303 224.875L176.683 236.592L181.154 241.332L177.925 241.624L182.117 279.034H189.567V248.18L194.695 247.234L193.404 279.034H201.809L204.327 247.641L208.63 247.428L207.086 279.033H215.382L217.901 247.641L222.203 247.428L220.659 279.033H228.255L235.086 237.883L197.146 240.289H197.147ZM395.529 243.551L400.105 220.885L399.932 210.009L391.711 208.595L392.073 203.637L405.121 204.846L418.466 205.876L416.554 212.035L405.672 210.482L405.362 218.701L398.763 244.423L395.529 243.551ZM437.853 208.861L431.177 195.021L387.991 193.93L378.002 206.299L383.758 230.255L382.818 261.529L396.459 268.969L418.586 251.74L438.895 222.445L437.853 208.86V208.861ZM426.475 261.286L405.447 272.846L403.293 268.492L424.029 254.211L443.237 224.781L442.853 212.605L439.072 200.951L442.469 198.805L450.029 214.437L450.237 229.028L426.475 261.286ZM-3.728 243.551L0.847996 220.885L0.674995 210.009L-7.5465 208.595L-7.18401 203.637L5.8645 204.846L19.209 205.876L17.2965 212.035L6.414 210.482L6.104 218.701L-0.494003 244.423L-3.7285 243.551H-3.728ZM38.5955 208.861L31.92 195.021L-11.267 193.93L-21.2555 206.299L-15.4995 230.255L-16.4395 261.529L-2.798 268.969L19.3285 251.74L39.6375 222.445L38.5955 208.86V208.861ZM27.218 261.286L6.1895 272.846L4.0355 268.492L24.7715 254.211L43.9795 224.781L43.5955 212.605L39.8145 200.951L43.2115 198.805L50.771 214.437L50.9795 229.028L27.218 261.286ZM284.292 82.118L236.26 114.618L237.514 116.728L286.812 86.354L284.293 82.118H284.292ZM300.803 100.894L243.84 118.122L244.276 120.624L301.803 106.126L300.803 100.894ZM298.497 136.495L224.307 136.014L231.932 166.395L243.99 171.361L243.132 178.212L276.214 179.212L276.438 171.822L291.82 164.501L298.497 136.495ZM278.999 120.343L272.542 126.854L284.25 133.128C284.25 133.128 288.952 122.976 288.104 123.307C287.257 123.638 278.999 120.343 278.999 120.343ZM266.75 118.968L254.388 122.591L256.311 131.593C256.311 131.593 266.896 132.792 267.041 132.159C267.188 131.526 266.75 118.968 266.75 118.968ZM239.631 121.43L234.41 130.335L242.917 132.04L245.594 128.611L239.631 121.43ZM345.826 257.04H342.663L344.244 252.104H347.209L345.826 257.04V257.04ZM340.681 265.48L333.689 266.391L332.458 263.53L340.81 262.295L340.681 265.48ZM331.729 278.085L328.251 275.48L330.03 273.112L333.982 275.085L331.729 278.085ZM321.212 244.536L317.734 241.932L319.513 239.565L323.466 241.537L321.212 244.536ZM310.682 272.071L297.908 267.552L298.618 260.029L312.913 248.427L323.023 253.301L323.466 263.371L310.682 272.071ZM318.068 282.588L316.905 277.905L319.628 276.301L320.621 281.085L318.068 282.588ZM306.704 287.897H302.995V284.121L306.704 283.332V287.897ZM296.829 280.935L293.35 278.33L295.646 275.274L299.082 277.936L296.83 280.935H296.829ZM290.629 257.729L289.017 255.732L291.634 253.629L293.245 255.626L290.629 257.729V257.729ZM290.212 268.368L287.742 267.668L288.66 264.441L291.13 265.142L290.212 268.368ZM280.022 279.85L279.335 276.972L284.161 277.242L284.896 280.313L280.022 279.85H280.022ZM279.708 260.04L284.28 264.586L281.685 267.497L277.246 262.069L279.708 260.04V260.04ZM286.667 243.722L288.707 246.173L284.164 250.75L281.294 250.224L286.667 243.722ZM297.123 243.1L304.471 245.386L303.653 248.456L295.604 245.904L297.123 243.1ZM310.473 235.607L312.435 237.826L308.046 239.849L305.954 237.482L310.474 235.607H310.473ZM328.961 240.995H331.434V238.526H328.961V240.995ZM335.047 246.587L337.53 248.204L333.843 251.323L331.193 249.599L335.047 246.587ZM349.341 233.051L303.8 226.768L276.372 243.474L264.983 271.547L284.508 297.185L317.978 295.677L354.426 273.151L355.845 252.413L349.341 233.051ZM108.646 263.329L99.301 269.475L95.3735 280.372L86.714 283.308L85.1065 292.661L71.58 296.698L69.53 304.336L63.743 299.724L67.367 289.044L80.031 285.85L81.1335 277.596L91.0665 272.776L94.148 263.668L103.591 258.68L94.462 255.164L77.096 268.332L58.2025 290.43L56.295 305.86L49.6505 311.172L47.4935 319.024L53.776 325.107L63.611 323.84L76.905 308.336L98.852 291.383L114.309 272.016L122.452 264.141L128.814 252.711L122.134 246.425L113.486 248.471L108.646 263.329ZM135.366 277.095L131.358 294.621L113.617 312.021L93.9535 330.688L82.7575 333.482L72.325 329.418L71.8165 321.798L81.231 311.892L106.422 291.318L117.045 278.238L122.961 270.808L129.831 268.903L135.366 277.095ZM228.082 339.6C226.762 341.56 224.621 341.899 223.477 340.938C222.331 339.978 221.209 337.083 224.317 335.51C226.607 334.35 229.401 337.641 228.082 339.6ZM232.116 318.182C234.552 316.949 237.526 320.45 236.121 322.534C234.717 324.619 232.44 324.979 231.221 323.957C230.003 322.935 228.809 319.856 232.116 318.181V318.182ZM245.214 328.78C247.231 327.758 248.804 330.811 247.643 332.535C246.481 334.259 245.483 334.403 244.475 333.557C243.467 332.711 242.478 330.164 245.214 328.78ZM216.664 327.395C215.305 329.414 214.137 329.582 212.957 328.592C211.777 327.603 210.621 324.621 213.823 323C216.183 321.805 218.024 325.378 216.664 327.395V327.395ZM207.495 348.734C206.13 349.201 203.335 348.474 203.925 344.671C204.36 341.869 208.396 341.621 209.11 344.018C209.821 346.415 208.862 348.268 207.495 348.734H207.495ZM261.038 334.672L253.498 314.061L223.106 305.112L218.839 308.591L204.583 303.549L179.789 316.809L170.314 337.384L168.673 364.965C171.996 368.948 181.826 370.613 181.826 370.613L173.896 356.345L183.305 350.505L177.358 337.783L186.126 333.355L185.717 321.015L199.492 318.863L202.066 308.356L215.831 311.044L192.289 330.241L186.111 369.007L261.038 334.672ZM402.824 341.252L410.069 331.895L410.469 321.161L417.14 314.052C417.14 314.052 419.586 306.609 419.613 306.54L413.146 304.036L411.084 310.471L404.319 318.391L403.813 328.543L397.849 337.104L402.824 341.252ZM421.677 325.336L416.118 322.301L410.145 335.579L404.025 343.961L394.638 343.521L399.505 329.621L400.517 315.871L393.556 315.021L392.648 328.649L387.828 343.201L387.081 343.166L388.319 327.404L391.634 312.668L384.605 312.571L381.687 326.608L381.317 337.19L378.757 331.781L380.69 321.574L373.621 320.109L371.655 331.772L375.702 339.317L375.616 342.629L370.938 342.409L378.822 381.41L408.801 383.286L410.991 380.709L414.288 344.442L411.801 344.326C416.159 335.92 421.551 325.53 421.677 325.336ZM3.8105 341.252L11.0555 331.895L11.455 321.161L18.1265 314.052C18.1265 314.052 20.5715 306.609 20.5995 306.54L14.1325 304.036L12.0705 310.471L5.305 318.391L4.7995 328.543L-1.165 337.104L3.81 341.252H3.8105ZM22.6635 325.336L17.104 322.301L11.131 335.579L5.011 343.961L-4.3765 343.521L0.491497 329.621L1.5035 315.871L-5.458 315.021L-6.366 328.649L-11.186 343.201L-11.933 343.166L-10.6955 327.404L-7.3795 312.668L-14.409 312.571L-17.327 326.608L-17.697 337.19L-20.2575 331.781L-18.3235 321.574L-25.392 320.109L-27.3585 331.772L-23.3115 339.317L-23.3975 342.629L-28.0765 342.409L-20.1915 381.41L9.78699 383.286L11.977 380.709L15.274 344.442L12.7875 344.326C17.145 335.92 22.5375 325.53 22.6635 325.336Z" fill="#D1D7D7"/>
</g>
</g>
</svg>
